<svg xmlns="http://www.w3.org/2000/svg" xmlns:xlink="http://www.w3.org/1999/xlink" width="2000" zoomAndPan="magnify" viewBox="0 0 1500 1499.999933" height="2000" preserveAspectRatio="xMidYMid meet" version="1.0"><path fill="#0ee071" d="M 699.488281 3.148438 C 531.820312 22.324219 389.796875 119.84375 314.308594 267.628906 C 267.460938 359.355469 250.902344 464.539062 267.777344 563.234375 C 297.582031 737.589844 436.429688 957.3125 663.96875 1190.191406 C 709.527344 1236.824219 722.164062 1244.867188 749.855469 1244.867188 C 776.34375 1244.867188 789.007812 1236.605469 836.375 1188.429688 C 1062.695312 958.242188 1201.09375 737.21875 1231.820312 556.882812 C 1247.714844 463.625 1231.308594 361.835938 1185.597656 270.0625 C 1106.265625 110.804688 944.617188 7.859375 764.125 1.65625 C 742.324219 0.90625 713.238281 1.578125 699.488281 3.148438 M 915.5625 177.867188 C 874.835938 194.621094 809.320312 234.199219 753.984375 275.472656 C 658.316406 346.828125 593.5625 419.574219 556.992188 496.773438 C 535.28125 542.609375 529.199219 568.773438 528.898438 617.644531 C 528.675781 653.65625 529.746094 662.597656 537.570312 690.152344 C 553.675781 746.878906 581.882812 792.949219 633.449219 846.769531 C 651.847656 865.964844 667.378906 881.191406 667.96875 880.605469 C 668.558594 880.011719 666.179688 872.003906 662.679688 862.796875 C 650.589844 830.96875 646.242188 802.820312 646.0625 755.097656 C 645.789062 682.109375 659.304688 627.933594 696.132812 554.449219 C 721.554688 503.714844 733.761719 486.449219 719.632812 521.203125 C 672.40625 637.394531 667.6875 759.910156 706.761719 855.46875 C 715.011719 875.648438 716.046875 876.800781 726.691406 877.707031 C 740.09375 878.851562 784.179688 868.058594 804.660156 858.621094 C 847.652344 838.816406 888.214844 799.421875 908.882812 757.414062 C 936.21875 701.828125 942.644531 656.558594 939.929688 538.648438 C 938.890625 493.464844 935.941406 437.296875 933.382812 413.835938 C 922.921875 318.054688 923.679688 284.363281 938.074219 205.46875 C 941.386719 187.320312 944.09375 172.035156 944.09375 171.5 C 944.09375 168.609375 930.929688 171.546875 915.5625 177.867188 M 397.445312 1019.378906 C 322.457031 1039.230469 250.722656 1069.214844 199.957031 1101.925781 C 166.644531 1123.390625 131.058594 1160.519531 118.617188 1186.792969 C 109.230469 1206.617188 108.324219 1211.171875 108.367188 1238.546875 C 108.402344 1264.757812 109.496094 1270.773438 116.976562 1285.945312 C 130.394531 1313.171875 151.195312 1337.03125 181.03125 1359.425781 C 270.949219 1426.910156 413.855469 1471.449219 605.992188 1491.875 C 666.214844 1498.277344 844.242188 1497.429688 906.546875 1490.445312 C 1067.839844 1472.363281 1200.574219 1433.988281 1287.695312 1380.246094 C 1325.675781 1356.824219 1366.585938 1316.105469 1380.160156 1288.222656 C 1425.207031 1195.6875 1343.601562 1100.554688 1166.910156 1039.628906 C 1131.921875 1027.5625 1084.777344 1014.203125 1077.203125 1014.203125 C 1073.582031 1014.203125 1038.890625 1056.441406 1038.890625 1060.851562 C 1038.890625 1062.367188 1049.910156 1066.191406 1063.378906 1069.351562 C 1146.722656 1088.921875 1219.558594 1123.863281 1252.113281 1159.902344 C 1274.222656 1184.375 1279.492188 1213.992188 1266.292969 1239.605469 C 1230.972656 1308.152344 1076.511719 1363.699219 873 1381.046875 C 816.453125 1385.871094 683.703125 1385.882812 626.710938 1381.070312 C 423.847656 1363.945312 267.699219 1308.171875 232.191406 1240.152344 C 223.277344 1223.074219 223.308594 1197.027344 232.261719 1180.09375 C 240.003906 1165.445312 262.886719 1142.742188 284.601562 1128.164062 C 314.699219 1107.957031 384.421875 1080.796875 435.949219 1069.207031 C 448.660156 1066.347656 459.628906 1063.488281 460.328125 1062.851562 C 463.195312 1060.242188 424.84375 1014.21875 420.019531 1014.488281 C 417.164062 1014.648438 407.003906 1016.847656 397.445312 1019.378906 " fill-opacity="1" fill-rule="evenodd"/></svg>